<?xml version="1.0" encoding="UTF-8" standalone="no"?>
<svg
   xmlns:dc="http://purl.org/dc/elements/1.1/"
   xmlns:cc="http://creativecommons.org/ns#"
   xmlns:rdf="http://www.w3.org/1999/02/22-rdf-syntax-ns#"
   xmlns:svg="http://www.w3.org/2000/svg"
   xmlns="http://www.w3.org/2000/svg"
   version="1.1"
   id="svg4963"
   viewBox="0 0 105.83333 75.406253"
   height="285"
   width="400">
  <defs
     id="defs4965" />
  <metadata
     id="metadata4968">
    <rdf:RDF>
      <cc:Work
         rdf:about="">
        <dc:format>image/svg+xml</dc:format>
        <dc:type
           rdf:resource="http://purl.org/dc/dcmitype/StillImage" />
        <dc:title></dc:title>
      </cc:Work>
    </rdf:RDF>
  </metadata>
  <g
     transform="translate(-83.644857,-73.69168)"
     id="layer1">
    <g
       transform="matrix(2.1563343,0,0,2.1563343,-510.84752,-242.86748)"
       id="g4847">
      <rect
         style="opacity:0.2;fill:none;fill-opacity:1;stroke:none;stroke-width:2.01215458;stroke-linecap:round;stroke-linejoin:round;stroke-miterlimit:4;stroke-dasharray:2.01215462, 6.03646385;stroke-dashoffset:0;stroke-opacity:1"
         id="rect4845"
         width="49.080208"
         height="34.969646"
         x="275.69583"
         y="146.80431" />
      <g
         transform="translate(152.36335,-91.016667)"
         id="g4821">
        <g
           id="text4823"
           aria-label="please"
           style="font-style:normal;font-variant:normal;font-weight:300;font-stretch:normal;font-size:18.02091217px;line-height:125%;font-family:Cormorant;-inkscape-font-specification:'Cormorant Light';text-align:center;letter-spacing:0px;word-spacing:0px;text-anchor:middle;fill:#000000;fill-opacity:1;stroke:none;stroke-width:0.45052278px;stroke-linecap:butt;stroke-linejoin:miter;stroke-opacity:1">
          <path
             id="path4906"
             style="font-style:normal;font-variant:normal;font-weight:300;font-stretch:normal;font-family:Cormorant;-inkscape-font-specification:'Cormorant Light';text-align:center;text-anchor:middle;stroke-width:0.45052278px"
             d="m 132.73646,248.18595 c -1.04521,0 -2.03636,0.50459 -3.11762,1.65793 0,-1.04522 -0.25229,-1.56782 -0.59469,-1.56782 -0.036,0 -0.10812,0.018 -0.14416,0.036 l -1.85616,0.88302 c -0.10812,0.0541 -0.018,0.23428 0.0901,0.19823 0.41448,-0.19823 0.75687,-0.27031 0.99115,-0.27031 0.50458,0 0.66677,0.37844 0.66677,1.24344 l 0,8.50587 c 0,1.0272 -0.18021,1.24345 -1.17136,1.24345 -0.0721,0 -0.0721,0.21625 0,0.21625 0.41448,0 1.00917,-0.036 1.62188,-0.036 0.84699,0 1.62188,0.036 2.25262,0.036 0.0541,0 0.0541,-0.21625 0,-0.21625 -1.56782,0 -1.85616,-0.21625 -1.85616,-1.24345 l 0,-3.83845 c 0.64876,0.4325 1.22542,0.57667 2.00032,0.57667 1.51376,0 3.85648,-1.24344 3.85648,-4.10877 0,-2.10845 -1.27949,-3.31585 -2.73918,-3.31585 z m -0.52261,7.0642 c -1.22542,0 -1.96428,-0.48656 -2.59501,-1.2074 l 0,-3.91054 c 0.72084,-0.75688 1.47772,-1.35157 2.46887,-1.35157 1.35157,0 2.39678,1.15334 2.39678,3.27981 0,2.00032 -1.00917,3.1897 -2.27064,3.1897 z" />
          <path
             id="path4908"
             style="font-style:normal;font-variant:normal;font-weight:300;font-stretch:normal;font-family:Cormorant;-inkscape-font-specification:'Cormorant Light';text-align:center;text-anchor:middle;stroke-width:0.45052278px"
             d="m 136.60931,255.3763 c 0.41448,0 1.00917,-0.036 1.62188,-0.036 0.63073,0 1.2074,0.036 1.62188,0.036 0.0721,0 0.0721,-0.21625 0,-0.21625 -1.00917,0 -1.17136,-0.23428 -1.17136,-1.24345 l 0,-11.47932 c 0,-0.0721 -0.0901,-0.12614 -0.12614,-0.12614 -0.036,0 -0.0541,0 -0.0901,0.018 l -2.21657,1.06323 c -0.10813,0.036 -0.018,0.25229 0.0901,0.19823 0.37844,-0.18021 0.64876,-0.27031 0.86501,-0.27031 0.4325,0 0.57667,0.37844 0.57667,1.24344 l 0,9.35285 c 0,1.04522 -0.18021,1.24345 -1.17136,1.24345 -0.0721,0 -0.0721,0.21625 0,0.21625 z" />
          <path
             id="path4910"
             style="font-style:normal;font-variant:normal;font-weight:300;font-stretch:normal;font-family:Cormorant;-inkscape-font-specification:'Cormorant Light';text-align:center;text-anchor:middle;stroke-width:0.45052278px"
             d="m 146.91474,254.40317 c -0.57667,0.4325 -1.24345,0.61271 -1.87418,0.61271 -1.82011,0 -2.86532,-1.51376 -2.86532,-3.56814 0,-0.36042 0.036,-0.6848 0.0901,-0.99115 l 4.46919,-0.018 c 0.18021,0 0.21625,-0.12615 0.21625,-0.39646 0,-1.09928 -0.72084,-1.78407 -1.9823,-1.78407 -2.16251,0 -3.82044,1.69396 -3.82044,3.87449 0,1.76605 1.1173,3.46002 3.31585,3.46002 0.88303,0 1.73001,-0.28834 2.57699,-1.00917 0.0541,-0.0721 -0.0721,-0.21625 -0.12614,-0.18021 z m -2.55897,-5.78472 c 0.90104,0 1.51375,0.54063 1.51375,1.5498 l -3.55012,0.0901 c 0.28834,-1.04521 0.97313,-1.63991 2.03637,-1.63991 z" />
          <path
             id="path4912"
             style="font-style:normal;font-variant:normal;font-weight:300;font-stretch:normal;font-family:Cormorant;-inkscape-font-specification:'Cormorant Light';text-align:center;text-anchor:middle;stroke-width:0.45052278px"
             d="m 155.08609,254.40317 c -0.4325,0.18021 -0.75688,0.27031 -0.99115,0.27031 -0.50458,0 -0.68479,-0.37844 -0.68479,-1.24344 l 0,-3.1897 c 0,-1.36959 -0.63073,-1.9823 -1.51376,-1.9823 -1.24344,0 -3.11762,1.17136 -3.11762,1.9823 0,0.30635 0.21625,0.48656 0.54063,0.48656 0.46854,0 0.54063,-0.36042 0.57667,-0.59469 0.0901,-0.61271 0.48656,-1.51376 1.45969,-1.51376 0.64876,0 1.22543,0.39647 1.22543,2.16251 l 0,1.51376 -2.27064,0.81094 c -1.15334,0.41448 -1.62188,0.73886 -1.62188,1.36959 0,0.54063 0.36042,1.02719 1.13532,1.02719 0.45052,0 0.81094,-0.14416 1.56782,-0.54062 l 1.18938,-0.64876 c 0.0541,0.7749 0.32437,1.2074 0.57667,1.2074 0.0721,0 0.10812,-0.018 0.14416,-0.036 l 1.85616,-0.88302 c 0.10812,-0.0541 0.036,-0.23427 -0.0721,-0.19823 z m -3.83845,0.36042 c -0.19823,0.0901 -0.4325,0.16218 -0.6848,0.16218 -0.46854,0 -0.79292,-0.28833 -0.79292,-0.79292 0,-0.39646 0.18021,-0.64875 0.72084,-0.84698 l 2.09043,-0.79292 0,1.5498 0,0.0541 -1.33355,0.66678 z" />
          <path
             id="path4914"
             style="font-style:normal;font-variant:normal;font-weight:300;font-stretch:normal;font-family:Cormorant;-inkscape-font-specification:'Cormorant Light';text-align:center;text-anchor:middle;stroke-width:0.45052278px"
             d="m 156.95886,249.57356 c 0,-0.68479 0.39646,-1.02719 1.04521,-1.02719 0.81094,0 1.85616,0.52261 1.85616,1.35157 0,0.0541 0.21625,0.0541 0.21625,0 0,-0.46854 0.036,-0.88302 0.036,-1.24344 0,-0.0901 -0.018,-0.12615 -0.16219,-0.19823 -0.41448,-0.18021 -0.84698,-0.27032 -1.27948,-0.27032 -1.18938,0 -2.41481,0.63073 -2.41481,2.00032 0,1.18938 0.88303,1.62189 1.78407,2.05439 0.82897,0.39646 1.65793,0.7749 1.69397,1.80209 0.0541,0.79292 -0.41448,1.18938 -1.26146,1.18938 -0.97313,0 -1.67595,-0.52261 -2.14449,-1.74803 -0.018,-0.0721 -0.21625,-0.0541 -0.21625,0.018 l 0.036,1.29751 c 0,0.10812 0.0541,0.18021 0.10812,0.21625 0.57667,0.4325 1.1173,0.55865 1.69397,0.55865 1.62188,0 2.52293,-0.99115 2.52293,-2.14449 0,-1.13532 -0.91907,-1.58584 -1.83814,-2.03636 -0.82896,-0.41449 -1.67594,-0.82897 -1.67594,-1.82012 z" />
          <path
             id="path4916"
             style="font-style:normal;font-variant:normal;font-weight:300;font-stretch:normal;font-family:Cormorant;-inkscape-font-specification:'Cormorant Light';text-align:center;text-anchor:middle;stroke-width:0.45052278px"
             d="m 167.75141,254.40317 c -0.57667,0.4325 -1.24344,0.61271 -1.87417,0.61271 -1.82011,0 -2.86533,-1.51376 -2.86533,-3.56814 0,-0.36042 0.036,-0.6848 0.0901,-0.99115 l 4.46918,-0.018 c 0.18021,0 0.21626,-0.12615 0.21626,-0.39646 0,-1.09928 -0.72084,-1.78407 -1.9823,-1.78407 -2.16251,0 -3.82044,1.69396 -3.82044,3.87449 0,1.76605 1.1173,3.46002 3.31585,3.46002 0.88302,0 1.73001,-0.28834 2.57699,-1.00917 0.0541,-0.0721 -0.0721,-0.21625 -0.12615,-0.18021 z m -2.55897,-5.78472 c 0.90105,0 1.51376,0.54063 1.51376,1.5498 l -3.55012,0.0901 c 0.28834,-1.04521 0.97313,-1.63991 2.03636,-1.63991 z" />
        </g>
        <g
           id="text4829"
           aria-label="the polite script runner"
           style="font-style:normal;font-variant:normal;font-weight:500;font-stretch:normal;font-size:3.46421552px;line-height:125%;font-family:Cormorant;-inkscape-font-specification:'Cormorant Medium';text-align:center;letter-spacing:0px;word-spacing:0px;text-anchor:middle;fill:#000000;fill-opacity:1;stroke:none;stroke-width:0.08660539px;stroke-linecap:butt;stroke-linejoin:miter;stroke-opacity:1">
          <path
             id="path4863"
             style="font-style:normal;font-variant:normal;font-weight:500;font-stretch:normal;font-family:Cormorant;-inkscape-font-specification:'Cormorant Medium';text-align:center;text-anchor:middle;stroke-width:0.08660539px"
             d="m 134.41928,260.1677 c -0.0624,0.0485 -0.15936,0.097 -0.27368,0.097 -0.16628,0 -0.26674,-0.0831 -0.26674,-0.27368 l 0,-0.84873 c 0.15935,0.003 0.30138,0.0173 0.46074,0.0554 0.0173,0.003 0.0346,-0.0485 0.0346,-0.0901 0,-0.045 -0.0104,-0.0797 -0.0242,-0.0797 -0.16975,0.0173 -0.31524,0.0312 -0.47113,0.0346 l 0,-0.26674 c 0,-0.0173 -0.0485,-0.0173 -0.052,0 -0.0346,0.16628 -0.16281,0.26674 -0.3672,0.27021 -0.0139,0 -0.0139,0.052 0,0.052 0.14896,0 0.18014,0.0312 0.18014,0.19053 l 0,0.80024 c 0,0.22863 0.17321,0.29445 0.34295,0.29445 0.15936,0 0.291,-0.0589 0.46075,-0.20438 0.0173,-0.0139 -0.007,-0.045 -0.0243,-0.0312 z" />
          <path
             id="path4865"
             style="font-style:normal;font-variant:normal;font-weight:500;font-stretch:normal;font-family:Cormorant;-inkscape-font-specification:'Cormorant Medium';text-align:center;text-anchor:middle;stroke-width:0.08660539px"
             d="m 136.17525,260.32012 c -0.16974,0 -0.20785,-0.0485 -0.20785,-0.23903 l 0,-0.66859 c 0,-0.27021 -0.14896,-0.4261 -0.40185,-0.4261 -0.19053,0 -0.36374,0.097 -0.53002,0.29099 l 0,-1.39261 c 0,-0.0139 -0.0242,-0.0346 -0.0416,-0.0346 l -0.0104,0 -0.4642,0.22171 c -0.0139,0.007 0.003,0.0485 0.0208,0.0416 0.0624,-0.0312 0.11432,-0.045 0.14897,-0.045 0.0831,0 0.10739,0.0693 0.10739,0.23211 l 0,1.7806 c 0,0.19053 -0.0381,0.23903 -0.20786,0.23903 -0.0104,0 -0.0104,0.0416 0,0.0416 0.0866,0 0.20093,-0.007 0.32564,-0.007 0.12818,0 0.24249,0.007 0.3291,0.007 0.0139,0 0.0139,-0.0416 0,-0.0416 -0.16975,0 -0.20785,-0.0485 -0.20785,-0.23903 l 0,-0.74134 c 0.11085,-0.11432 0.25288,-0.1836 0.38799,-0.1836 0.20785,0 0.30485,0.12471 0.30485,0.39145 l 0,0.53349 c 0,0.19053 -0.0381,0.23903 -0.20785,0.23903 -0.0104,0 -0.0104,0.0416 0,0.0416 0.0866,0 0.20092,-0.007 0.32563,-0.007 0.12818,0 0.2425,0.007 0.3291,0.007 0.0139,0 0.0139,-0.0416 0,-0.0416 z" />
          <path
             id="path4867"
             style="font-style:normal;font-variant:normal;font-weight:500;font-stretch:normal;font-family:Cormorant;-inkscape-font-specification:'Cormorant Medium';text-align:center;text-anchor:middle;stroke-width:0.08660539px"
             d="m 137.52614,260.15731 c -0.1074,0.0762 -0.23904,0.10739 -0.35335,0.10739 -0.34296,0 -0.54042,-0.27368 -0.54042,-0.66513 0,-0.0624 0.003,-0.11779 0.0138,-0.16975 l 0.84874,-0.003 c 0.0312,0 0.0381,-0.0381 0.0381,-0.0901 0,-0.21132 -0.14549,-0.34296 -0.40877,-0.34296 -0.43303,0 -0.75867,0.3291 -0.75867,0.74134 0,0.34642 0.23211,0.66859 0.66513,0.66859 0.18707,0 0.35335,-0.0589 0.51964,-0.21478 0.0139,-0.0104 -0.0104,-0.0381 -0.0242,-0.0312 z m -0.5231,-1.0947 c 0.15242,0 0.24249,0.11086 0.24942,0.29793 l -0.59584,0.0138 c 0.0485,-0.19399 0.16974,-0.31178 0.34642,-0.31178 z" />
          <path
             id="path4869"
             style="font-style:italic;font-variant:normal;font-weight:500;font-stretch:normal;font-family:Cormorant;-inkscape-font-specification:'Cormorant Medium Italic';stroke-width:0.08660539px"
             d="m 139.46447,259.00026 c -0.14549,0 -0.29792,0.0485 -0.44688,0.12471 l 0.0623,-0.35335 c 0.003,-0.0139 -0.0312,-0.0242 -0.0381,-0.007 -0.0277,0.14203 -0.22171,0.23557 -0.22518,0.25982 l -0.045,0.25288 c -0.0693,0.052 -0.13511,0.10393 -0.20093,0.15936 -0.0138,0.0104 0.0139,0.045 0.0277,0.0346 0.0554,-0.0416 0.10739,-0.0831 0.15935,-0.11778 l -0.29446,1.64896 c -0.0346,0.21132 -0.0554,0.2425 -0.20438,0.27021 -0.0139,0.003 -0.007,0.045 0.0104,0.0416 l 0.61663,-0.0935 c 0.0208,-0.007 0.007,-0.045 -0.0104,-0.0416 -0.18361,0.0242 -0.21825,-0.0139 -0.18707,-0.20093 l 0.11085,-0.62355 c 0.0485,0.007 0.10393,0.0104 0.18014,0.0104 0.37067,0 0.7552,-0.40531 0.82102,-0.87991 0.045,-0.31525 -0.0728,-0.48499 -0.33603,-0.48499 z m 0.10393,0.59931 c -0.0485,0.38106 -0.19746,0.66513 -0.48153,0.66513 -0.10739,0 -0.19399,-0.0208 -0.26328,-0.0554 l 0.18014,-1.00116 c 0.097,-0.045 0.19053,-0.0693 0.28753,-0.0693 0.27021,0 0.30485,0.22863 0.27714,0.46074 z" />
          <path
             id="path4871"
             style="font-style:italic;font-variant:normal;font-weight:500;font-stretch:normal;font-family:Cormorant;-inkscape-font-specification:'Cormorant Medium Italic';stroke-width:0.08660539px"
             d="m 140.42146,260.41019 c 0.31871,0 0.66167,-0.26328 0.75174,-0.71709 0.0762,-0.39146 -0.0728,-0.71363 -0.43996,-0.71363 -0.35335,0 -0.66166,0.30485 -0.74134,0.71363 -0.0727,0.39492 0.0797,0.71709 0.42956,0.71709 z m 0.12125,-0.0866 c -0.26675,0 -0.38106,-0.40185 -0.30832,-0.77945 0.0589,-0.30832 0.21825,-0.48153 0.39146,-0.48153 0.27367,0 0.37067,0.41917 0.30485,0.78292 -0.0554,0.29792 -0.21132,0.47806 -0.38799,0.47806 z" />
          <path
             id="path4873"
             style="font-style:italic;font-variant:normal;font-weight:500;font-stretch:normal;font-family:Cormorant;-inkscape-font-specification:'Cormorant Medium Italic';stroke-width:0.08660539px"
             d="m 141.59702,260.39287 c 0.12471,0 0.2425,-0.097 0.39146,-0.27021 0.0173,-0.0173 -0.0104,-0.045 -0.0277,-0.0277 -0.0901,0.0866 -0.16281,0.14896 -0.21478,0.14896 -0.052,0 -0.0797,-0.0554 -0.052,-0.19053 l 0.39838,-2.17553 c 0.003,-0.0104 -0.0208,-0.0346 -0.0381,-0.0277 l -0.47806,0.2321 c -0.0208,0.007 -0.003,0.0485 0.0173,0.0416 0.20092,-0.10046 0.25289,-0.0554 0.21824,0.12471 l -0.33256,1.80486 c -0.045,0.23903 -0.0139,0.33949 0.11778,0.33949 z" />
          <path
             id="path4875"
             style="font-style:italic;font-variant:normal;font-weight:500;font-stretch:normal;font-family:Cormorant;-inkscape-font-specification:'Cormorant Medium Italic';stroke-width:0.08660539px"
             d="m 142.70985,258.59841 c 0.10046,0 0.15935,-0.0589 0.15935,-0.16282 0,-0.097 -0.0589,-0.15589 -0.15935,-0.15589 -0.10393,0 -0.16629,0.0589 -0.16629,0.15589 0,0.10393 0.0624,0.16282 0.16629,0.16282 z m -0.22518,1.79446 c 0.12471,0 0.24596,-0.0901 0.39492,-0.26674 0.0173,-0.0139 -0.0104,-0.045 -0.0277,-0.0277 -0.0866,0.0901 -0.16628,0.1455 -0.21825,0.1455 -0.052,0 -0.0762,-0.0554 -0.0485,-0.19053 l 0.13857,-0.73788 c 0.045,-0.22517 0.0139,-0.32217 -0.11778,-0.32217 -0.12125,0 -0.24596,0.0831 -0.40531,0.27021 -0.0173,0.0173 0.0104,0.045 0.0277,0.0277 0.0935,-0.10046 0.17668,-0.15242 0.22517,-0.15242 0.0589,0 0.0832,0.0658 0.0589,0.19399 l -0.14204,0.72056 c -0.052,0.24596 -0.0104,0.33949 0.11432,0.33949 z" />
          <path
             id="path4877"
             style="font-style:italic;font-variant:normal;font-weight:500;font-stretch:normal;font-family:Cormorant;-inkscape-font-specification:'Cormorant Medium Italic';stroke-width:0.08660539px"
             d="m 143.985,259.03144 c -0.052,0 -0.25635,0.0208 -0.43649,0.0243 l 0.0485,-0.26329 c 0.003,-0.0173 -0.0554,-0.0208 -0.0589,-0.003 -0.0554,0.15243 -0.18014,0.27714 -0.36028,0.27714 -0.0139,0 -0.0208,0.0485 -0.003,0.0485 0.1351,0 0.14896,0.0242 0.11778,0.18706 l -0.14203,0.78292 c -0.0485,0.25635 0.0935,0.3187 0.23903,0.3187 0.14549,0 0.29446,-0.0762 0.50577,-0.26674 0.0104,-0.0139 -0.0208,-0.0381 -0.0277,-0.0277 -0.10393,0.0831 -0.20092,0.14549 -0.32217,0.14549 -0.1455,0 -0.194,-0.0797 -0.16282,-0.25981 l 0.15242,-0.84874 c 0.16282,0.007 0.34296,0.0381 0.36028,0.0381 0.0485,0 0.10393,-0.0797 0.11432,-0.11778 0.003,-0.0173 -0.007,-0.0346 -0.0242,-0.0346 z" />
          <path
             id="path4879"
             style="font-style:italic;font-variant:normal;font-weight:500;font-stretch:normal;font-family:Cormorant;-inkscape-font-specification:'Cormorant Medium Italic';stroke-width:0.08660539px"
             d="m 144.90605,258.97947 c -0.40878,0 -0.7448,0.38799 -0.81062,0.74134 -0.0658,0.35335 0.0624,0.68245 0.43995,0.68245 0.16282,0 0.33949,-0.0589 0.51617,-0.21131 0.0104,-0.0139 -0.0139,-0.0381 -0.0242,-0.0277 -0.11086,0.0832 -0.23557,0.11086 -0.33603,0.11086 -0.29099,0 -0.40531,-0.2806 -0.34296,-0.65127 0.40532,-0.0658 0.76906,-0.24943 0.80024,-0.45728 0.0208,-0.11432 -0.0693,-0.18707 -0.2425,-0.18707 z m -0.0277,0.25982 c -0.0381,0.17321 -0.23903,0.2806 -0.5231,0.33949 0.052,-0.27714 0.18014,-0.50577 0.38453,-0.50577 0.0935,0 0.16628,0.0485 0.13857,0.16628 z" />
          <path
             id="path4881"
             style="font-style:normal;font-variant:normal;font-weight:500;font-stretch:normal;font-family:Cormorant;-inkscape-font-specification:'Cormorant Medium';text-align:center;text-anchor:middle;stroke-width:0.08660539px"
             d="m 146.37499,259.22197 c 0,-0.12471 0.0762,-0.16975 0.17667,-0.16975 0.17321,0 0.36721,0.14896 0.36721,0.29446 0,0.0104 0.0381,0.0104 0.0381,0 0,-0.10393 0.0104,-0.19053 0.0104,-0.27021 0,-0.0173 -0.0104,-0.0312 -0.0346,-0.0416 -0.0935,-0.0381 -0.17322,-0.052 -0.26328,-0.052 -0.23904,0 -0.48153,0.11432 -0.48153,0.39145 0,0.23557 0.17667,0.31871 0.34296,0.40185 0.14896,0.0762 0.30485,0.15589 0.30831,0.35335 0.003,0.13511 -0.0728,0.20093 -0.20439,0.20093 -0.1836,0 -0.34642,-0.14204 -0.4261,-0.37067 -0.007,-0.0104 -0.0416,-0.007 -0.0416,0.003 l 0.007,0.29446 c 0,0.0208 0.0104,0.0312 0.0208,0.0416 0.11778,0.0762 0.22864,0.10046 0.33949,0.10046 0.32564,0 0.50231,-0.20785 0.50231,-0.42956 0,-0.22864 -0.18707,-0.32217 -0.36028,-0.41224 -0.15242,-0.0831 -0.30138,-0.16282 -0.30138,-0.33603 z" />
          <path
             id="path4883"
             style="font-style:normal;font-variant:normal;font-weight:500;font-stretch:normal;font-family:Cormorant;-inkscape-font-specification:'Cormorant Medium';text-align:center;text-anchor:middle;stroke-width:0.08660539px"
             d="m 147.982,260.40326 c 0.20786,0 0.36375,-0.0693 0.5231,-0.21478 0.0139,-0.0104 -0.0104,-0.0346 -0.0242,-0.0277 -0.11085,0.0762 -0.21824,0.10739 -0.34296,0.10739 -0.40877,0 -0.57159,-0.30139 -0.57159,-0.65474 0,-0.32563 0.14203,-0.55081 0.38799,-0.55081 0.12818,0 0.17321,0.0554 0.21825,0.15243 0.0346,0.0727 0.0866,0.13164 0.17321,0.13164 0.0901,0 0.14203,-0.0589 0.14203,-0.12818 0,-0.13857 -0.21478,-0.22517 -0.41224,-0.22517 -0.36374,0 -0.77599,0.26328 -0.77599,0.72748 0,0.32564 0.20439,0.68245 0.68245,0.68245 z" />
          <path
             id="path4885"
             style="font-style:normal;font-variant:normal;font-weight:500;font-stretch:normal;font-family:Cormorant;-inkscape-font-specification:'Cormorant Medium';text-align:center;text-anchor:middle;stroke-width:0.08660539px"
             d="m 149.59308,258.98986 c -0.097,0 -0.194,0.0624 -0.38799,0.28061 -0.003,-0.18014 -0.0624,-0.28061 -0.10393,-0.28061 -0.007,0 -0.0138,0.003 -0.0208,0.007 l -0.42957,0.20439 c -0.0173,0.007 0,0.0485 0.0173,0.0381 0.0762,-0.0312 0.1351,-0.0485 0.18013,-0.0485 0.0866,0 0.12125,0.0658 0.12125,0.21825 l 0,0.67205 c 0,0.19053 -0.0416,0.23903 -0.21131,0.23903 -0.0104,0 -0.0104,0.0416 0,0.0416 0.0866,0 0.20438,-0.007 0.3291,-0.007 0.16974,0 0.3291,0.007 0.44688,0.007 0.0139,0 0.0139,-0.0416 0,-0.0416 -0.27021,0 -0.3291,-0.0485 -0.3291,-0.23903 l 0,-0.7448 c 0.14203,-0.15589 0.1836,-0.17668 0.23557,-0.17668 0.11085,0 0.12817,0.11778 0.24249,0.11778 0.0831,0 0.12818,-0.0554 0.12818,-0.12471 0,-0.0935 -0.12125,-0.16282 -0.21825,-0.16282 z" />
          <path
             id="path4887"
             style="font-style:normal;font-variant:normal;font-weight:500;font-stretch:normal;font-family:Cormorant;-inkscape-font-specification:'Cormorant Medium';text-align:center;text-anchor:middle;stroke-width:0.08660539px"
             d="m 150.36262,258.6088 c 0.10393,0 0.16282,-0.0623 0.16282,-0.16975 0,-0.10046 -0.0589,-0.15935 -0.16282,-0.15935 -0.10739,0 -0.17321,0.0589 -0.17321,0.15935 0,0.1074 0.0658,0.16975 0.17321,0.16975 z m -0.30138,1.75289 c 0.0866,0 0.20092,-0.007 0.32563,-0.007 0.12472,0 0.23903,0.007 0.32564,0.007 0.0139,0 0.0139,-0.0416 0,-0.0416 -0.16975,0 -0.20785,-0.0485 -0.20785,-0.23903 l 0,-0.64434 c 0,-0.22518 0.007,-0.36374 0.007,-0.41224 0,-0.0139 -0.0173,-0.0346 -0.0346,-0.0346 -0.007,0 -0.007,0 -0.0139,0.003 l -0.47114,0.22171 c -0.0173,0.007 0,0.0485 0.0173,0.0416 0.0624,-0.0312 0.11432,-0.045 0.14897,-0.045 0.0831,0 0.11085,0.0693 0.11085,0.23211 l 0,0.63741 c 0,0.19053 -0.0416,0.23903 -0.20785,0.23903 -0.0139,0 -0.0139,0.0416 0,0.0416 z" />
          <path
             id="path4889"
             style="font-style:normal;font-variant:normal;font-weight:500;font-stretch:normal;font-family:Cormorant;-inkscape-font-specification:'Cormorant Medium';text-align:center;text-anchor:middle;stroke-width:0.08660539px"
             d="m 151.93375,258.97947 c -0.18706,0 -0.3672,0.0831 -0.55773,0.27368 -0.0104,-0.16975 -0.0624,-0.25982 -0.11432,-0.25982 -0.007,0 -0.0139,0 -0.0208,0.007 l -0.41917,0.20092 c -0.0173,0.007 0,0.045 0.0208,0.0381 0.0762,-0.0346 0.1351,-0.052 0.17667,-0.052 0.0901,0 0.12125,0.0693 0.12125,0.22517 l 0,1.62125 c 0,0.19746 -0.0346,0.23903 -0.21132,0.23903 -0.0139,0 -0.0139,0.0416 0,0.0416 0.0866,0 0.20439,-0.007 0.3291,-0.007 0.16975,0 0.32564,0.007 0.45035,0.007 0.0139,0 0.0139,-0.0416 0,-0.0416 -0.2806,0 -0.33256,-0.0416 -0.33256,-0.23903 l 0,-0.69631 c 0.11085,0.0485 0.20785,0.0693 0.34295,0.0693 0.31525,0 0.7552,-0.22171 0.7552,-0.78984 0,-0.40532 -0.25635,-0.63742 -0.54042,-0.63742 z m -0.12124,1.35105 c -0.20786,0 -0.3291,-0.0831 -0.43649,-0.20439 l 0,-0.8037 c 0.11085,-0.11432 0.22863,-0.19053 0.38799,-0.19053 0.24596,0 0.44688,0.20439 0.44688,0.59238 0,0.39838 -0.16628,0.60624 -0.39838,0.60624 z" />
          <path
             id="path4891"
             style="font-style:normal;font-variant:normal;font-weight:500;font-stretch:normal;font-family:Cormorant;-inkscape-font-specification:'Cormorant Medium';text-align:center;text-anchor:middle;stroke-width:0.08660539px"
             d="m 153.68221,260.1677 c -0.0624,0.0485 -0.15936,0.097 -0.27368,0.097 -0.16628,0 -0.26674,-0.0831 -0.26674,-0.27368 l 0,-0.84873 c 0.15935,0.003 0.30139,0.0173 0.46074,0.0554 0.0173,0.003 0.0346,-0.0485 0.0346,-0.0901 0,-0.045 -0.0104,-0.0797 -0.0242,-0.0797 -0.16974,0.0173 -0.31524,0.0312 -0.47113,0.0346 l 0,-0.26674 c 0,-0.0173 -0.0485,-0.0173 -0.052,0 -0.0346,0.16628 -0.16282,0.26674 -0.36721,0.27021 -0.0139,0 -0.0139,0.052 0,0.052 0.14896,0 0.18014,0.0312 0.18014,0.19053 l 0,0.80024 c 0,0.22863 0.17321,0.29445 0.34296,0.29445 0.15935,0 0.29099,-0.0589 0.46074,-0.20438 0.0173,-0.0139 -0.007,-0.045 -0.0242,-0.0312 z" />
          <path
             id="path4893"
             style="font-style:normal;font-variant:normal;font-weight:500;font-stretch:normal;font-family:Cormorant;-inkscape-font-specification:'Cormorant Medium';text-align:center;text-anchor:middle;stroke-width:0.08660539px"
             d="m 155.56073,258.98986 c -0.097,0 -0.19399,0.0624 -0.38799,0.28061 -0.003,-0.18014 -0.0624,-0.28061 -0.10393,-0.28061 -0.007,0 -0.0139,0.003 -0.0208,0.007 l -0.42956,0.20439 c -0.0173,0.007 0,0.0485 0.0173,0.0381 0.0762,-0.0312 0.1351,-0.0485 0.18014,-0.0485 0.0866,0 0.12124,0.0658 0.12124,0.21825 l 0,0.67205 c 0,0.19053 -0.0416,0.23903 -0.21131,0.23903 -0.0104,0 -0.0104,0.0416 0,0.0416 0.0866,0 0.20439,-0.007 0.3291,-0.007 0.16974,0 0.3291,0.007 0.44688,0.007 0.0139,0 0.0139,-0.0416 0,-0.0416 -0.27021,0 -0.3291,-0.0485 -0.3291,-0.23903 l 0,-0.7448 c 0.14203,-0.15589 0.1836,-0.17668 0.23557,-0.17668 0.11085,0 0.12817,0.11778 0.24249,0.11778 0.0831,0 0.12818,-0.0554 0.12818,-0.12471 0,-0.0935 -0.12125,-0.16282 -0.21825,-0.16282 z" />
          <path
             id="path4895"
             style="font-style:normal;font-variant:normal;font-weight:500;font-stretch:normal;font-family:Cormorant;-inkscape-font-specification:'Cormorant Medium';text-align:center;text-anchor:middle;stroke-width:0.08660539px"
             d="m 157.55314,260.15384 c -0.0762,0.0312 -0.12817,0.0485 -0.16974,0.0485 -0.0831,0 -0.11432,-0.0624 -0.11432,-0.22171 l 0,-0.95612 c 0,-0.0139 -0.0242,-0.0312 -0.0416,-0.0312 -0.003,0 -0.007,0 -0.0139,0.003 l -0.40878,0.19054 c -0.0173,0.003 -0.003,0.0485 0.0173,0.0381 0.045,-0.0208 0.0797,-0.0312 0.10739,-0.0312 0.0762,0 0.10393,0.0762 0.10393,0.24943 l 0,0.59584 c -0.11085,0.11779 -0.25635,0.18707 -0.38799,0.18707 -0.194,0 -0.29099,-0.12818 -0.29099,-0.39492 l 0,-0.80716 c 0,-0.0139 -0.0243,-0.0312 -0.0416,-0.0312 -0.003,0 -0.007,0 -0.0138,0.003 l -0.40878,0.19054 c -0.0173,0.003 -0.003,0.0485 0.0173,0.0381 0.045,-0.0208 0.0797,-0.0312 0.10739,-0.0312 0.0762,0 0.10393,0.0762 0.10393,0.24943 l 0,0.52309 c 0,0.27021 0.1455,0.4261 0.38106,0.4261 0.194,0 0.36721,-0.0935 0.53349,-0.28753 0,0.19053 0.0554,0.29446 0.0935,0.29446 0.007,0 0.0104,0 0.0173,-0.003 l 0.42956,-0.20439 c 0.0139,-0.007 -0.003,-0.045 -0.0208,-0.0381 z" />
          <path
             id="path4897"
             style="font-style:normal;font-variant:normal;font-weight:500;font-stretch:normal;font-family:Cormorant;-inkscape-font-specification:'Cormorant Medium';text-align:center;text-anchor:middle;stroke-width:0.08660539px"
             d="m 159.30983,260.32012 c -0.16975,0 -0.20786,-0.0485 -0.20786,-0.23903 l 0,-0.67552 c 0,-0.27021 -0.14896,-0.42263 -0.40185,-0.42263 -0.19053,0 -0.36374,0.097 -0.53002,0.28753 -0.003,-0.18014 -0.0624,-0.28061 -0.10393,-0.28061 -0.007,0 -0.0138,0.003 -0.0208,0.007 l -0.42956,0.20439 c -0.0173,0.007 0,0.0485 0.0173,0.0381 0.0762,-0.0312 0.1351,-0.0485 0.18014,-0.0485 0.0866,0 0.12124,0.0658 0.12124,0.21825 l 0,0.67205 c 0,0.19053 -0.0416,0.23903 -0.21131,0.23903 -0.0104,0 -0.0104,0.0416 0,0.0416 0.0866,0 0.20438,-0.007 0.3291,-0.007 0.12471,0 0.23903,0.007 0.32563,0.007 0.0139,0 0.0139,-0.0416 0,-0.0416 -0.16974,0 -0.20785,-0.0485 -0.20785,-0.23903 l 0,-0.74134 c 0.11085,-0.11778 0.25635,-0.18707 0.38799,-0.18707 0.20785,0 0.30832,0.12125 0.30832,0.388 l 0,0.54041 c 0,0.19053 -0.0416,0.23903 -0.21132,0.23903 -0.0104,0 -0.0104,0.0416 0,0.0416 0.0866,0 0.20439,-0.007 0.3291,-0.007 0.12471,0 0.23903,0.007 0.32564,0.007 0.0138,0 0.0138,-0.0416 0,-0.0416 z" />
          <path
             id="path4899"
             style="font-style:normal;font-variant:normal;font-weight:500;font-stretch:normal;font-family:Cormorant;-inkscape-font-specification:'Cormorant Medium';text-align:center;text-anchor:middle;stroke-width:0.08660539px"
             d="m 161.10959,260.32012 c -0.16974,0 -0.20785,-0.0485 -0.20785,-0.23903 l 0,-0.67552 c 0,-0.27021 -0.14896,-0.42263 -0.40185,-0.42263 -0.19053,0 -0.36374,0.097 -0.53002,0.28753 -0.003,-0.18014 -0.0624,-0.28061 -0.10393,-0.28061 -0.007,0 -0.0139,0.003 -0.0208,0.007 l -0.42957,0.20439 c -0.0173,0.007 0,0.0485 0.0173,0.0381 0.0762,-0.0312 0.13511,-0.0485 0.18014,-0.0485 0.0866,0 0.12125,0.0658 0.12125,0.21825 l 0,0.67205 c 0,0.19053 -0.0416,0.23903 -0.21132,0.23903 -0.0104,0 -0.0104,0.0416 0,0.0416 0.0866,0 0.20439,-0.007 0.3291,-0.007 0.12472,0 0.23904,0.007 0.32564,0.007 0.0139,0 0.0139,-0.0416 0,-0.0416 -0.16975,0 -0.20785,-0.0485 -0.20785,-0.23903 l 0,-0.74134 c 0.11085,-0.11778 0.25635,-0.18707 0.38799,-0.18707 0.20785,0 0.30832,0.12125 0.30832,0.388 l 0,0.54041 c 0,0.19053 -0.0416,0.23903 -0.21132,0.23903 -0.0104,0 -0.0104,0.0416 0,0.0416 0.0866,0 0.20439,-0.007 0.3291,-0.007 0.12471,0 0.23903,0.007 0.32563,0.007 0.0139,0 0.0139,-0.0416 0,-0.0416 z" />
          <path
             id="path4901"
             style="font-style:normal;font-variant:normal;font-weight:500;font-stretch:normal;font-family:Cormorant;-inkscape-font-specification:'Cormorant Medium';text-align:center;text-anchor:middle;stroke-width:0.08660539px"
             d="m 162.45902,260.15731 c -0.1074,0.0762 -0.23904,0.10739 -0.35335,0.10739 -0.34296,0 -0.54042,-0.27368 -0.54042,-0.66513 0,-0.0624 0.003,-0.11779 0.0139,-0.16975 l 0.84874,-0.003 c 0.0312,0 0.0381,-0.0381 0.0381,-0.0901 0,-0.21132 -0.14549,-0.34296 -0.40877,-0.34296 -0.43303,0 -0.75867,0.3291 -0.75867,0.74134 0,0.34642 0.23211,0.66859 0.66513,0.66859 0.18707,0 0.35335,-0.0589 0.51963,-0.21478 0.0139,-0.0104 -0.0104,-0.0381 -0.0242,-0.0312 z m -0.5231,-1.0947 c 0.15242,0 0.24249,0.11086 0.24942,0.29793 l -0.59584,0.0138 c 0.0485,-0.19399 0.16974,-0.31178 0.34642,-0.31178 z" />
          <path
             id="path4903"
             style="font-style:normal;font-variant:normal;font-weight:500;font-stretch:normal;font-family:Cormorant;-inkscape-font-specification:'Cormorant Medium';text-align:center;text-anchor:middle;stroke-width:0.08660539px"
             d="m 163.5785,258.98986 c -0.097,0 -0.194,0.0624 -0.38799,0.28061 -0.003,-0.18014 -0.0624,-0.28061 -0.10393,-0.28061 -0.007,0 -0.0139,0.003 -0.0208,0.007 l -0.42956,0.20439 c -0.0173,0.007 0,0.0485 0.0173,0.0381 0.0762,-0.0312 0.13511,-0.0485 0.18014,-0.0485 0.0866,0 0.12125,0.0658 0.12125,0.21825 l 0,0.67205 c 0,0.19053 -0.0416,0.23903 -0.21132,0.23903 -0.0104,0 -0.0104,0.0416 0,0.0416 0.0866,0 0.20439,-0.007 0.3291,-0.007 0.16975,0 0.3291,0.007 0.44689,0.007 0.0138,0 0.0138,-0.0416 0,-0.0416 -0.27021,0 -0.3291,-0.0485 -0.3291,-0.23903 l 0,-0.7448 c 0.14203,-0.15589 0.1836,-0.17668 0.23556,-0.17668 0.11086,0 0.12818,0.11778 0.2425,0.11778 0.0831,0 0.12817,-0.0554 0.12817,-0.12471 0,-0.0935 -0.12124,-0.16282 -0.21824,-0.16282 z" />
        </g>
        <g
           id="g4835"
           transform="matrix(0.17259031,0,0,0.17259031,135.96894,236.15934)">
          <g
             id="g4837"
             transform="matrix(1,0,0,0.80253231,16.135164,136.99059)">
            <path
               d="m 43.139072,41.9 c 0.209,0.189 0.328,0.458 0.328,0.74 l 0,10.62 c 0,0.313 -0.146,0.608 -0.396,0.797 -0.5,0.379 -12.394,9.305 -24.547,11.112 -0.049,0.007 -0.099,0.011 -0.147,0.011 -0.39,0 -0.780228,0.0446 -0.912,-0.592 -4.170382,-20.147357 0.284832,-33.657404 0.448,-34.203 0.132357,-0.442569 0.672,-0.57 1.1,-0.467 0.609,0.147 15.042,3.715 24.126,11.982 z"
               id="path4839" />
            <path
               style="stroke-width:1.18467999"
               d="m 54.817522,40.97499 -8.725482,0 c -0.654796,0 -1.184079,0.531006 -1.184079,1.185281 l 0,11.639458 c 0,0.654275 0.529283,1.185281 1.184079,1.185281 l 8.725482,0 c 0.654796,0 1.18408,-0.531006 1.18408,-1.185281 l 0,-11.639458 c 0,-0.654275 -0.529284,-1.185281 -1.18408,-1.185281 z"
               id="path4841" />
            <path
               id="path4843"
               d="m 57.770483,41.9 c -0.209,0.189 -0.328,0.458 -0.328,0.74 l 0,10.62 c 0,0.313 0.146,0.608 0.396,0.797 0.5,0.379 12.394,9.305 24.547,11.112 0.049,0.007 0.099,0.011 0.147,0.011 0.39,0 0.780228,0.0446 0.912,-0.592 4.170382,-20.147357 -0.284832,-33.657404 -0.448,-34.203 -0.132357,-0.442569 -0.672,-0.57 -1.1,-0.467 -0.609,0.147 -15.042,3.715 -24.126,11.982 z" />
          </g>
        </g>
      </g>
    </g>
  </g>
</svg>
