<?xml version="1.0" encoding="UTF-8" standalone="no"?>
<!-- Created with Inkscape (http://www.inkscape.org/) -->

<svg
   xmlns:dc="http://purl.org/dc/elements/1.1/"
   xmlns:cc="http://creativecommons.org/ns#"
   xmlns:rdf="http://www.w3.org/1999/02/22-rdf-syntax-ns#"
   xmlns:svg="http://www.w3.org/2000/svg"
   xmlns="http://www.w3.org/2000/svg"
   xmlns:sodipodi="http://sodipodi.sourceforge.net/DTD/sodipodi-0.dtd"
   xmlns:inkscape="http://www.inkscape.org/namespaces/inkscape"
   width="210mm"
   height="297mm"
   viewBox="0 0 210 297"
   id="svg2"
   version="1.1"
   inkscape:version="0.91+devel+osxmenu r12922"
   sodipodi:docname="logo.svg">
  <defs
     id="defs4" />
  <sodipodi:namedview
     id="base"
     pagecolor="#ffffff"
     bordercolor="#666666"
     borderopacity="1.0"
     inkscape:pageopacity="0.0"
     inkscape:pageshadow="2"
     inkscape:zoom="2.8284271"
     inkscape:cx="493.27435"
     inkscape:cy="242.335"
     inkscape:document-units="mm"
     inkscape:current-layer="g4310"
     showgrid="false"
     showguides="true"
     inkscape:guide-bbox="true"
     inkscape:window-width="1440"
     inkscape:window-height="900"
     inkscape:window-x="0"
     inkscape:window-y="0"
     inkscape:window-maximized="0" />
  <metadata
     id="metadata7">
    <rdf:RDF>
      <cc:Work
         rdf:about="">
        <dc:format>image/svg+xml</dc:format>
        <dc:type
           rdf:resource="http://purl.org/dc/dcmitype/StillImage" />
        <dc:title></dc:title>
      </cc:Work>
    </rdf:RDF>
  </metadata>
  <g
     inkscape:label="Layer 1"
     inkscape:groupmode="layer"
     id="layer1">
    <text
       xml:space="preserve"
       style="font-style:normal;font-variant:normal;font-weight:normal;font-stretch:normal;font-size:10.58333302px;line-height:125%;font-family:Cormorant;-inkscape-font-specification:Cormorant;letter-spacing:0px;word-spacing:0px;fill:#000000;fill-opacity:1;stroke:none;stroke-width:0.26458332px;stroke-linecap:butt;stroke-linejoin:miter;stroke-opacity:1"
       x="40.065475"
       y="48.291664"
       id="text4141"
       sodipodi:linespacing="125%"><tspan
         sodipodi:role="line"
         id="tspan4143"
         x="40.065475"
         y="48.291664"
         style="font-style:normal;font-variant:normal;font-weight:normal;font-stretch:normal;font-family:Cormorant;-inkscape-font-specification:Cormorant;stroke-width:0.26458332px"><tspan
   style="font-size:3.52777767px"
   id="tspan4149">git.io    </tspan>please</tspan></text>
    <g
       style="font-style:normal;font-variant:normal;font-weight:normal;font-stretch:normal;font-size:10.58333302px;line-height:125%;font-family:Cormorant;-inkscape-font-specification:Cormorant;letter-spacing:0px;word-spacing:0px;fill:#000000;fill-opacity:1;stroke:none;stroke-width:0.26458332px;stroke-linecap:butt;stroke-linejoin:miter;stroke-opacity:1"
       aria-label="/"
       id="text4163"
       transform="matrix(1.1318534,0,0,1.1318534,1.4925535,-6.3730181)">
      <path
         d="m 40.397969,49.037691 1.416608,-4.952506 c 0.01128,-0.02811 -0.101176,-0.07265 -0.118041,-0.03892 l -1.416608,4.958126 c -0.0057,0.02811 0.106797,0.06703 0.118041,0.03332 z"
         style="font-size:4.58611107px;stroke-width:0.32431492px"
         id="path4172"
         inkscape:connector-curvature="0"
         sodipodi:nodetypes="cccccc" />
    </g>
    <g
       id="g4192"
       transform="matrix(0.26458333,0,0,0.26458333,49.447648,46.769061)">
      <path
         id="path4176"
         d="m 43.139,41.9 c 0.209,0.189 0.328,0.458 0.328,0.74 l 0,10.62 c 0,0.313 -0.146,0.608 -0.396,0.797 -0.5,0.379 -12.394,9.305 -24.547,11.112 -0.049,0.007 -0.099,0.011 -0.147,0.011 -0.39,0 -0.749,-0.228 -0.912,-0.592 -8.374,-18.713 0.085,-33.579 0.448,-34.203 0.224,-0.381 0.672,-0.57 1.1,-0.467 0.609,0.147 15.042,3.715 24.126,11.982 z"
         inkscape:connector-curvature="0" />
      <path
         id="path4178"
         d="m 82.091,30.385 c -0.224,-0.381 -0.67,-0.57 -1.1,-0.467 -0.61,0.147 -15.043,3.715 -24.128,11.982 -0.208,0.189 -0.326,0.458 -0.326,0.74 l 0,10.62 c 0,0.313 0.146,0.608 0.396,0.797 0.501,0.379 12.394,9.305 24.537,11.112 0.049,0.007 0.098,0.011 0.146,0.011 0.39,0 0.75,-0.228 0.912,-0.591 8.385,-18.714 -0.074,-33.58 -0.437,-34.204 z"
         inkscape:connector-curvature="0" />
      <path
         id="path4180"
         d="m 53.756,42.07 -7.369,0 c -0.553,0 -1,0.448 -1,1 l 0,9.82 c 0,0.552 0.447,1 1,1 l 7.369,0 c 0.553,0 1,-0.448 1,-1 l 0,-9.82 c 0,-0.552 -0.447,-1 -1,-1 z"
         inkscape:connector-curvature="0" />
      <text
         id="text4182"
         font-weight="bold"
         font-size="5px"
         y="115"
         x="0"
         style="font-weight:bold;font-size:5px;font-family:'Helvetica Neue', Helvetica, Arial-Unicode, Arial, Sans-serif;fill:#000000">Created by Lisa Krymova</text>
      <text
         id="text4184"
         font-weight="bold"
         font-size="5px"
         y="120"
         x="0"
         style="font-weight:bold;font-size:5px;font-family:'Helvetica Neue', Helvetica, Arial-Unicode, Arial, Sans-serif;fill:#000000">from the Noun Project</text>
    </g>
    <text
       sodipodi:linespacing="125%"
       id="text4199"
       y="48.386158"
       x="135.50705"
       style="font-style:normal;font-variant:normal;font-weight:normal;font-stretch:normal;font-size:10.58333302px;line-height:125%;font-family:Cormorant;-inkscape-font-specification:Cormorant;letter-spacing:0px;word-spacing:0px;fill:#000000;fill-opacity:1;stroke:none;stroke-width:0.26458332px;stroke-linecap:butt;stroke-linejoin:miter;stroke-opacity:1;text-anchor:middle;text-align:center;"
       xml:space="preserve"><tspan
         style="font-style:normal;font-variant:normal;font-weight:normal;font-stretch:normal;font-family:Cormorant;-inkscape-font-specification:Cormorant;stroke-width:0.26458332px;text-anchor:middle;text-align:center;"
         y="48.386158"
         x="116.41666"
         id="tspan4201"
         sodipodi:role="line"
         dx="0 0 0 0 0 0 0 0 0 -0.18898809"><tspan
           style="font-style:normal;font-variant:normal;font-weight:300;font-stretch:normal;font-size:5.29166651px;font-family:Cormorant;-inkscape-font-specification:'Cormorant Light';text-anchor:middle;text-align:center;"
           id="tspan4217">git.io/ </tspan><tspan
           style="font-style:normal;font-variant:normal;font-weight:bold;font-stretch:normal;font-family:Cormorant;-inkscape-font-specification:'Cormorant Bold';text-anchor:middle;text-align:center;"
           id="tspan4219">please</tspan></tspan></text>
    <g
       transform="matrix(0.21501736,0,0,0.21501736,124.11944,46.857326)"
       id="g4205">
      <path
         inkscape:connector-curvature="0"
         d="m 43.139,41.9 c 0.209,0.189 0.328,0.458 0.328,0.74 l 0,10.62 c 0,0.313 -0.146,0.608 -0.396,0.797 -0.5,0.379 -12.394,9.305 -24.547,11.112 -0.049,0.007 -0.099,0.011 -0.147,0.011 -0.39,0 -0.749,-0.228 -0.912,-0.592 -8.374,-18.713 0.085,-33.579 0.448,-34.203 0.224,-0.381 0.672,-0.57 1.1,-0.467 0.609,0.147 15.042,3.715 24.126,11.982 z"
         id="path4207" />
      <path
         inkscape:connector-curvature="0"
         d="m 82.091,30.385 c -0.224,-0.381 -0.67,-0.57 -1.1,-0.467 -0.61,0.147 -15.043,3.715 -24.128,11.982 -0.208,0.189 -0.326,0.458 -0.326,0.74 l 0,10.62 c 0,0.313 0.146,0.608 0.396,0.797 0.501,0.379 12.394,9.305 24.537,11.112 0.049,0.007 0.098,0.011 0.146,0.011 0.39,0 0.75,-0.228 0.912,-0.591 8.385,-18.714 -0.074,-33.58 -0.437,-34.204 z"
         id="path4209" />
      <path
         inkscape:connector-curvature="0"
         d="m 53.756,42.07 -7.369,0 c -0.553,0 -1,0.448 -1,1 l 0,9.82 c 0,0.552 0.447,1 1,1 l 7.369,0 c 0.553,0 1,-0.448 1,-1 l 0,-9.82 c 0,-0.552 -0.447,-1 -1,-1 z"
         id="path4211" />
    </g>
    <text
       xml:space="preserve"
       style="font-style:normal;font-variant:normal;font-weight:normal;font-stretch:normal;font-size:3.04565358px;line-height:125%;font-family:Cormorant;-inkscape-font-specification:Cormorant;text-align:center;letter-spacing:0px;word-spacing:0px;text-anchor:middle;fill:#000000;fill-opacity:1;stroke:none;stroke-width:0.07614134px;stroke-linecap:butt;stroke-linejoin:miter;stroke-opacity:1"
       x="135.73738"
       y="66.721817"
       id="text4221"
       sodipodi:linespacing="125%"><tspan
         sodipodi:role="line"
         id="tspan4223"
         x="135.73738"
         y="66.721817"
         style="font-style:normal;font-variant:normal;font-weight:normal;font-stretch:normal;font-family:Cormorant;-inkscape-font-specification:Cormorant;text-align:center;text-anchor:middle;stroke-width:0.07614134px">the <tspan
   style="font-style:italic;font-variant:normal;font-weight:normal;font-stretch:normal;font-family:Cormorant;-inkscape-font-specification:'Cormorant Italic';stroke-width:0.07614134px"
   id="tspan4231">polite</tspan> script runner</tspan></text>
    <text
       xml:space="preserve"
       style="font-style:normal;font-variant:normal;font-weight:normal;font-stretch:normal;font-size:10.58333302px;line-height:125%;font-family:Cormorant;-inkscape-font-specification:Cormorant;text-align:center;letter-spacing:0px;word-spacing:0px;text-anchor:middle;fill:#000000;fill-opacity:1;stroke:none;stroke-width:0.26458332px;stroke-linecap:butt;stroke-linejoin:miter;stroke-opacity:1"
       x="144.2005"
       y="128.51711"
       id="text4233"
       sodipodi:linespacing="125%"><tspan
         dx="0 0 0 0 0 0 0 0 0 -0.18898809"
         sodipodi:role="line"
         id="tspan4235"
         x="144.2005"
         y="128.51711"
         style="font-style:normal;font-variant:normal;font-weight:normal;font-stretch:normal;font-family:Cormorant;-inkscape-font-specification:Cormorant;text-align:center;text-anchor:middle;stroke-width:0.26458332px"><tspan
           id="tspan4237"
           style="font-style:normal;font-variant:normal;font-weight:300;font-stretch:normal;font-size:5.29166651px;font-family:Cormorant;-inkscape-font-specification:'Cormorant Light';text-align:center;text-anchor:middle">git.io/ </tspan><tspan
           id="tspan4239"
           style="font-style:normal;font-variant:normal;font-weight:bold;font-stretch:normal;font-family:Cormorant;-inkscape-font-specification:'Cormorant Bold';text-align:center;text-anchor:middle">please</tspan></tspan></text>
    <text
       sodipodi:linespacing="125%"
       id="text4249"
       y="135.51349"
       x="144.43083"
       style="font-style:normal;font-variant:normal;font-weight:normal;font-stretch:normal;font-size:3.04565358px;line-height:125%;font-family:Cormorant;-inkscape-font-specification:Cormorant;text-align:center;letter-spacing:0px;word-spacing:0px;text-anchor:middle;fill:#000000;fill-opacity:1;stroke:none;stroke-width:0.07614134px;stroke-linecap:butt;stroke-linejoin:miter;stroke-opacity:1"
       xml:space="preserve"><tspan
         style="font-style:normal;font-variant:normal;font-weight:normal;font-stretch:normal;font-family:Cormorant;-inkscape-font-specification:Cormorant;text-align:center;text-anchor:middle;stroke-width:0.07614134px"
         y="135.51349"
         x="144.43083"
         id="tspan4251"
         sodipodi:role="line">the <tspan
   id="tspan4253"
   style="font-style:italic;font-variant:normal;font-weight:normal;font-stretch:normal;font-family:Cormorant;-inkscape-font-specification:'Cormorant Italic';stroke-width:0.07614134px">polite</tspan> script runner</tspan></text>
    <g
       id="g4269"
       transform="matrix(0.26458333,0,0,0.26458333,131.16717,99.101286)">
      <path
         id="path4257"
         d="m 92.813,71.312 c -1.762,2.408 -5.647,4.379 -8.633,4.379 l -68.362,0 c -2.985,0 -6.868,-1.971 -8.632,-4.379 L 6.656,70.587 C 4.892,68.179 5.893,66.208 8.878,66.208 l 82.246,0 c 2.984,0 3.982,1.971 2.219,4.379 l -0.53,0.725 z m -9.592,-7.947 0,-6.938 0,-1.709 0,-6.94 c 0,-12.96 -14.875,-23.47 -33.222,-23.47 -18.347,0 -33.22,10.507 -33.22,23.47 l 0,6.94 0,1.709 0,6.938 6.94,0 1.452,0 49.655,0 1.452,0 6.943,0 z"
         inkscape:connector-curvature="0" />
    </g>
    <text
       sodipodi:linespacing="125%"
       id="text4274"
       y="180.08344"
       x="143.45805"
       style="font-style:normal;font-variant:normal;font-weight:300;font-stretch:normal;font-size:18.02091217px;line-height:125%;font-family:Cormorant;-inkscape-font-specification:'Cormorant Light';text-align:center;letter-spacing:0px;word-spacing:0px;text-anchor:middle;fill:#000000;fill-opacity:1;stroke:none;stroke-width:0.45052278px;stroke-linecap:butt;stroke-linejoin:miter;stroke-opacity:1"
       xml:space="preserve"><tspan
         style="font-style:normal;font-variant:normal;font-weight:300;font-stretch:normal;font-family:Cormorant;-inkscape-font-specification:'Cormorant Light';text-align:center;text-anchor:middle;stroke-width:0.45052278px"
         y="180.08344"
         x="143.45805"
         id="tspan4276"
         sodipodi:role="line"
         dx="0 -0.32180199"><tspan
           style="font-style:normal;font-variant:normal;font-weight:300;font-stretch:normal;font-family:Cormorant;-inkscape-font-specification:'Cormorant Light';text-align:center;text-anchor:middle;stroke-width:0.45052278px"
           id="tspan4280">please</tspan></tspan></text>
    <text
       xml:space="preserve"
       style="font-style:normal;font-variant:normal;font-weight:500;font-stretch:normal;font-size:3.46421552px;line-height:125%;font-family:Cormorant;-inkscape-font-specification:'Cormorant Medium';text-align:center;letter-spacing:0px;word-spacing:0px;text-anchor:middle;fill:#000000;fill-opacity:1;stroke:none;stroke-width:0.08660539px;stroke-linecap:butt;stroke-linejoin:miter;stroke-opacity:1;"
       x="144.25922"
       y="185.06883"
       id="text4282"
       sodipodi:linespacing="125%"><tspan
         sodipodi:role="line"
         id="tspan4284"
         x="144.25922"
         y="185.06883"
         style="font-style:normal;font-variant:normal;font-weight:500;font-stretch:normal;font-family:Cormorant;-inkscape-font-specification:'Cormorant Medium';text-align:center;text-anchor:middle;stroke-width:0.08660539px;">the <tspan
   style="font-style:italic;font-variant:normal;font-weight:500;font-stretch:normal;font-family:Cormorant;-inkscape-font-specification:'Cormorant Medium Italic';stroke-width:0.08660539px"
   id="tspan4286">polite</tspan> script runner</tspan></text>
    <g
       transform="matrix(0.26458333,0,0,0.26458333,129.74976,143.3245)"
       id="g4288">
      <path
         inkscape:connector-curvature="0"
         d="m 92.813,71.312 c -1.762,2.408 -5.647,4.379 -8.633,4.379 l -68.362,0 c -2.985,0 -6.868,-1.971 -8.632,-4.379 L 6.656,70.587 C 4.892,68.179 5.893,66.208 8.878,66.208 l 82.246,0 c 2.984,0 3.982,1.971 2.219,4.379 l -0.53,0.725 z m -9.592,-7.947 0,-6.938 0,-1.709 0,-6.94 c 0,-12.96 -14.875,-23.47 -33.222,-23.47 -18.347,0 -33.22,10.507 -33.22,23.47 l 0,6.94 0,1.709 0,6.938 6.94,0 1.452,0 49.655,0 1.452,0 6.943,0 z"
         id="path4290" />
    </g>
    <text
       xml:space="preserve"
       style="font-style:normal;font-variant:normal;font-weight:300;font-stretch:normal;font-size:18.02091217px;line-height:125%;font-family:Cormorant;-inkscape-font-specification:'Cormorant Light';text-align:center;letter-spacing:0px;word-spacing:0px;text-anchor:middle;fill:#000000;fill-opacity:1;stroke:none;stroke-width:0.45052278px;stroke-linecap:butt;stroke-linejoin:miter;stroke-opacity:1"
       x="145.15895"
       y="232.62213"
       id="text4294"
       sodipodi:linespacing="125%"><tspan
         dx="0 -0.32180199"
         sodipodi:role="line"
         id="tspan4296"
         x="145.15895"
         y="232.62213"
         style="font-style:normal;font-variant:normal;font-weight:300;font-stretch:normal;font-family:Cormorant;-inkscape-font-specification:'Cormorant Light';text-align:center;text-anchor:middle;stroke-width:0.45052278px"><tspan
           id="tspan4298"
           style="font-style:normal;font-variant:normal;font-weight:300;font-stretch:normal;font-family:Cormorant;-inkscape-font-specification:'Cormorant Light';text-align:center;text-anchor:middle;stroke-width:0.45052278px">please</tspan></tspan></text>
    <text
       sodipodi:linespacing="125%"
       id="text4300"
       y="237.60753"
       x="145.96011"
       style="font-style:normal;font-variant:normal;font-weight:500;font-stretch:normal;font-size:3.46421552px;line-height:125%;font-family:Cormorant;-inkscape-font-specification:'Cormorant Medium';text-align:center;letter-spacing:0px;word-spacing:0px;text-anchor:middle;fill:#000000;fill-opacity:1;stroke:none;stroke-width:0.08660539px;stroke-linecap:butt;stroke-linejoin:miter;stroke-opacity:1"
       xml:space="preserve"><tspan
         style="font-style:normal;font-variant:normal;font-weight:500;font-stretch:normal;font-family:Cormorant;-inkscape-font-specification:'Cormorant Medium';text-align:center;text-anchor:middle;stroke-width:0.08660539px"
         y="237.60753"
         x="145.96011"
         id="tspan4302"
         sodipodi:role="line">the <tspan
   id="tspan4304"
   style="font-style:italic;font-variant:normal;font-weight:500;font-stretch:normal;font-family:Cormorant;-inkscape-font-specification:'Cormorant Medium Italic';stroke-width:0.08660539px">polite</tspan> script runner</tspan></text>
    <g
       id="g4310"
       transform="matrix(0.17259031,0,0,0.17259031,135.96894,236.15934)">
      <g
         id="g4318"
         transform="matrix(1,0,0,0.80253231,0.80502582,5.1514006)">
        <path
           inkscape:connector-curvature="0"
           d="m 43.139072,41.9 c 0.209,0.189 0.328,0.458 0.328,0.74 l 0,10.62 c 0,0.313 -0.146,0.608 -0.396,0.797 -0.5,0.379 -12.394,9.305 -24.547,11.112 -0.049,0.007 -0.099,0.011 -0.147,0.011 -0.39,0 -0.780228,0.0446 -0.912,-0.592 -4.170382,-20.147357 0.284832,-33.657404 0.448,-34.203 0.132357,-0.442569 0.672,-0.57 1.1,-0.467 0.609,0.147 15.042,3.715 24.126,11.982 z"
           id="path4312"
           sodipodi:nodetypes="cssccssscc" />
        <path
           style="stroke-width:1.18467999"
           inkscape:connector-curvature="0"
           d="m 54.817522,40.97499 -8.725482,0 c -0.654796,0 -1.184079,0.531006 -1.184079,1.185281 l 0,11.639458 c 0,0.654275 0.529283,1.185281 1.184079,1.185281 l 8.725482,0 c 0.654796,0 1.18408,-0.531006 1.18408,-1.185281 l 0,-11.639458 c 0,-0.654275 -0.529284,-1.185281 -1.18408,-1.185281 z"
           id="path4316" />
        <path
           sodipodi:nodetypes="cssccssscc"
           id="path4325"
           d="m 57.770483,41.9 c -0.209,0.189 -0.328,0.458 -0.328,0.74 l 0,10.62 c 0,0.313 0.146,0.608 0.396,0.797 0.5,0.379 12.394,9.305 24.547,11.112 0.049,0.007 0.099,0.011 0.147,0.011 0.39,0 0.780228,0.0446 0.912,-0.592 4.170382,-20.147357 -0.284832,-33.657404 -0.448,-34.203 -0.132357,-0.442569 -0.672,-0.57 -1.1,-0.467 -0.609,0.147 -15.042,3.715 -24.126,11.982 z"
           inkscape:connector-curvature="0" />
      </g>
    </g>
  </g>
</svg>
